<?xml version="1.0" encoding="UTF-8"?>
<svg xmlns="http://www.w3.org/2000/svg" version="1.1" viewBox="0 0 376 375">
  <defs>
    <style>
      .cls-1 {
        fill: #e7a400;
      }

      .cls-2 {
        fill: #e1a101;
      }

      .cls-3 {
        fill: #1f1e1b;
      }

      .cls-4 {
        fill: #f8cb07;
      }

      .cls-5 {
        fill: #f8c903;
      }

      .cls-6 {
        fill: #fccc01;
      }

      .cls-7 {
        fill: #e6a400;
      }

      .cls-8 {
        fill: #f8e183;
      }

      .cls-9 {
        fill: #cdcdcd;
      }

      .cls-10 {
        fill: #cecece;
      }

      .cls-11 {
        fill: #f8e180;
      }

      .cls-12 {
        fill: #e4a201;
      }

      .cls-13 {
        fill: #f5df81;
      }

      .cls-14 {
        fill: #f7c801;
      }

      .cls-15 {
        fill: #fccd00;
      }

      .cls-16 {
        fill: #eec202;
      }

      .cls-17 {
        fill: #fbcc02;
      }

      .cls-18 {
        fill: #222018;
      }

      .cls-19 {
        fill: #e5a401;
      }

      .cls-20 {
        fill: #fbe481;
      }

      .cls-21 {
        fill: #f9e17b;
      }

      .cls-22 {
        fill: #fbcc01;
      }

      .cls-23 {
        fill: #f3dc77;
      }

      .cls-24 {
        fill: #fdcd00;
      }

      .cls-25 {
        fill: #f3f3f3;
      }

      .cls-26 {
        fill: #f9e382;
      }
    </style>
  </defs>
  <!-- Generator: Adobe Illustrator 28.6.0, SVG Export Plug-In . SVG Version: 1.2.0 Build 709)  -->
  <g>
    <g id="Layer_1">
      <g>
        <path class="cls-4" d="M233.01,112.77c8.64-3.48,17.28-6.99,25.94-10.45,33.06-13.21,66.56-25.14,100.8-34.97,5.6-1.61,11.29-2.91,17.48-4.49-.33.8-.43,1.21-.65,1.53-9.62,13.91-15.1,29.61-20.09,45.59-10.22,32.74-40.38,55.08-74.61,55.75-7.86.15-15.72.55-23.57.85-.2,0-.39.23-.9.55,19.4,4.71,38.54,9.35,58.73,14.25-4.6,3.56-8.29,6.44-12,9.3-4.05,3.12-8.19,6.13-12.15,9.35-14.51,11.79-31.53,13.13-47.68,3.87-7.56-4.34-15.31-8.35-22.99-12.48-1.08-.58-2.24-1.01-4.27-1.92,1.1,4.04,2.07,7.32,2.9,10.64,4.76,19.06,1.99,37.64-4.02,55.87-9.07,27.57-23.99,51.98-41.63,74.77-9.24,11.94-19.16,23.36-28.87,34.94-1.14,1.36-2.86,2.23-4.25,3.29,0,.04-.3-.57-.11-.89,10.58-17.94,13.1-38.19,16.68-58.12.75-4.16,2.72-9.1,1.24-12.37-1.43-3.17-6.59-4.66-10.11-6.88-15.8-9.98-28.39-22.75-35.19-40.52-.8-2.08-1.83-2.17-3.7-1.71-10.62,2.62-21.27,5.14-31.92,7.64-1.17.27-2.44.14-3.66.2,0,0,.01.06.01.06,4.22-5.87,8.66-11.62,12.54-17.71,1.08-1.7.87-4.48.68-6.71-1.03-12.03-2.33-24.03-3.31-36.06-.24-2.93.39-5.93.69-9.78-18.45,9.91-37.66,15.23-58.46,16.15-.43-15.48,3.7-29.94,9.42-44.07,5.69-14.06,13-27.18,22.49-39.05-5.41-3.66-14.63-2.96-21.06,1.54-1.33.93-2.57,1.99-3.76,3.08-2.68,2.46-5.69,3.02-8.96,1.47-3.18-1.51-4.52-4.24-4.21-7.67.33-3.65,2.49-5.97,6.01-6.75,7.34-1.63,14.71-3.1,21.69-4.55-2.31-2.33-8.85-3.84-14.35-2.48-2.98.74-5.87,2-8.65,3.33-3.29,1.57-6.36,2.05-9.39-.43-2.74-2.24-3.48-5.23-2.45-8.41,1.17-3.59,4.11-4.84,7.75-5.4,18.64-2.9,34.21,2.73,46.2,15.87,5.6-2.45,10.57-5.01,15.8-6.8,5.63-1.92,11.03-.35,16.12,2.52,1.11.63,2.66,1.41,3.71,1.1,18.02-5.4,32.54,1.68,45.49,13.15,5.35,4.74,9.59,10.73,14.44,16.27C185.18,87.73,213,43.26,246.24.89c.66,6.14.74,11.28,1.85,16.19,1.64,7.25,3.42,14.58,6.16,21.46,11.01,27.64,1.27,56.04-19.27,71.5-.87.66-1.52,1.61-2.27,2.42-.42.09-.85.17-1.27.26.03.16.06.33.09.49.49-.15.98-.3,1.48-.44ZM369.08,68.83c-3.89.87-7.85,1.49-11.65,2.63-48.53,14.64-96.06,31.96-142,53.5-1.25.59-2.65.85-3.98,1.27,6.61-6.56,13.5-12.49,20.62-18.13,22.04-17.5,28.84-43,18.57-69.04-2.37-6-3.95-12.34-5.58-18.6-.81-3.12-.91-6.43-1.32-9.66l-.96-.24c-31.17,41.71-58.98,85.47-80.27,133.54-.44-.82-.76-1.34-1.01-1.89-6.56-14.53-17.29-24.91-31.68-31.5-8.46-3.87-17.3-4.81-26.21-1.54-2.03.75-3.35.47-5.02-.77-4.83-3.57-10.39-4.77-15.95-2.61-5.26,2.04-10.14,5.06-15.34,7.72-1.43-1.34-3.37-3.08-5.22-4.91-11.76-11.61-26-14.59-41.82-11.97-3.32.55-4.96,3.8-3.26,6.39,1.72,2.61,4.08,2.43,6.55,1.01,6.17-3.55,12.73-5.08,19.79-3.52,7.38,1.63,13.2,5.59,18.2,11.98-1.19,0-1.58.09-1.91-.01-11-3.56-21.74-1.49-32.34,1.78-1.39.43-2.75,2.42-3.19,3.96-.29,1.02.84,3.29,1.79,3.61,1.52.5,3.49.06,5.15-.42.98-.28,1.68-1.44,2.55-2.15,9.24-7.55,22.41-8.01,30.12-1.2-18.9,23.59-31.32,49.8-34.01,80.66,14.31-1.2,27.47-3.78,39.93-9.2,6.72-2.92,13.2-6.38,19.79-9.6.09.09.18.19.27.28-2.36,12-2.64,24.07-.9,36.15.96,6.62,2.38,13.18,3.59,19.76l.26.25c-3.27,4.85-6.54,9.7-10.32,15.29,11.44-2.72,21.96-5.23,31.88-7.59,3.8,7.09,6.92,14.36,11.3,20.76,8.5,12.45,20.48,21.06,33.86,27.66,3.27,1.61,4.22,3.48,3.59,6.9-1.49,8.1-2.62,16.26-4.17,24.35-1.69,8.8-3.69,17.53-5.68,26.89.94-.87,1.51-1.3,1.96-1.83,13.08-15.14,25.41-30.81,35.78-47.98,9.84-16.29,18.44-33.14,23.54-51.56,4.95-17.87,6.71-35.85.38-53.79-1.57-4.46-3.78-8.7-5.92-13.54,1.29.44,2.23.65,3.05,1.07,11.18,5.79,22.5,11.33,33.49,17.48,15.96,8.92,32.47,7.75,45.15-3.55,3.53-3.14,7.44-5.86,11.19-8.75,1.95-1.5,3.92-2.97,6.37-4.83-28.9-8.35-57.57-14.38-86.92-17.2.71-.3,1.41-.49,2.13-.53,20.45-1.21,40.89-2.46,61.34-3.59,18.58-1.02,34.64-8.01,48.22-20.56,10.6-9.8,17.59-21.91,21.46-35.83,3.55-12.77,8.39-25.02,15.07-36.5.14-.15.28-.3.42-.45-.24.05-.48.1-.72.14Z"/>
        <path class="cls-4" d="M74.41,256.36v.17s.02-.11.02-.11c0,0-.02-.06-.02-.06Z"/>
        <path class="cls-3" d="M92.38,236.11c-1.21-6.58-2.63-13.14-3.59-19.76-1.74-12.08-1.46-24.15.9-36.15.04-.24.08-.49.12-.73-.13.15-.26.3-.39.45-6.59,3.22-13.07,6.68-19.79,9.6-12.45,5.41-25.61,8-39.93,9.2,2.69-30.86,15.1-57.07,34.01-80.66-7.72-6.81-20.88-6.35-30.12,1.2-.87.71-1.58,1.86-2.55,2.15-1.65.48-3.62.92-5.15.42-.95-.31-2.08-2.59-1.79-3.61.44-1.54,1.8-3.53,3.19-3.96,10.59-3.27,21.33-5.34,32.34-1.78.33.11.72.01,1.91.01-5-6.38-10.82-10.34-18.2-11.98-7.06-1.56-13.62-.03-19.79,3.52-2.47,1.42-4.83,1.6-6.55-1.01-1.7-2.58-.06-5.84,3.26-6.39,15.82-2.63,30.05.36,41.82,11.97,1.85,1.83,3.79,3.56,5.22,4.91,5.2-2.67,10.08-5.68,15.34-7.72,5.56-2.16,11.12-.96,15.95,2.61,1.66,1.23,2.99,1.51,5.02.77,8.91-3.27,17.75-2.33,26.21,1.54,14.39,6.59,25.12,16.97,31.68,31.5.25.55.57,1.07,1.01,1.89,21.29-48.07,49.09-91.83,80.27-133.54l.96.24c.42,3.22.51,6.53,1.32,9.66,1.63,6.27,3.21,12.6,5.58,18.6,10.27,26.04,3.47,51.54-18.57,69.04-7.11,5.65-14.01,11.58-20.62,18.13,1.33-.41,2.73-.68,3.98-1.27,45.94-21.53,93.46-38.86,142-53.5,3.8-1.15,7.76-1.77,11.65-2.63.1.1.21.2.31.31-6.68,11.48-11.52,23.73-15.07,36.5-3.87,13.92-10.85,26.03-21.46,35.83-13.58,12.55-29.63,19.54-48.22,20.56-20.45,1.13-40.9,2.38-61.34,3.59-.71.04-1.42.23-2.13.53,29.35,2.82,58.02,8.85,86.92,17.2-2.45,1.85-4.42,3.32-6.37,4.83-3.75,2.89-7.66,5.61-11.19,8.75-12.68,11.31-29.19,12.48-45.15,3.55-10.99-6.14-22.3-11.69-33.49-17.48-.82-.43-1.76-.63-3.05-1.07,2.14,4.84,4.35,9.08,5.92,13.54,6.33,17.94,4.57,35.92-.38,53.79-5.1,18.42-13.7,35.27-23.54,51.56-10.37,17.17-22.7,32.85-35.78,47.98-.45.53-1.02.96-1.96,1.83,1.99-9.36,4-18.1,5.68-26.89,1.55-8.08,2.67-16.25,4.17-24.35.63-3.42-.32-5.28-3.59-6.9-13.38-6.6-25.36-15.21-33.86-27.66-4.38-6.41-7.5-13.67-11.3-20.76-9.93,2.36-20.44,4.87-31.88,7.59,3.78-5.6,7.05-10.45,10.32-15.3.17-.23.35-.45.51-.69.01-.02-.14-.15-.22-.23-.18.22-.36.44-.55.66ZM151.73,242.92c-.38.26-.76.52-1.15.78-1.38,1.88-2.77,3.76-4.15,5.64.2.21.4.42.59.63,2.81-.73,5.62-1.47,8.59-2.24-.31-1.49-.55-2.62-.91-4.36,2.94,1.21,4.97,5.37,8.33,1.44v-4.09l-.04.04c.72.51,1.45,1.03,2.17,1.54,1.36,2.86,3.38,1.24,4.98.49.55-.26.46-1.85.67-2.83-.08-.69-.15-1.38-.27-2.42.98.41,1.62.67,2.26.94,1.15,1.3,2.12,2.56,4.31,1.49,9.59-4.65,18.6-10.11,25.6-18.31,5.36-6.28,9.16-13.23,8.21-21.26-7.35,1.05-14.53,2.07-21.71,3.1-1.96.79-3.92,1.58-5.87,2.36.13.42.25.84.38,1.26l6.59.78c-.62.43-1.24.87-1.86,1.3,0,0,.05-.03.05-.03-1.3.3-2.74.35-3.88.95-13.4,7.17-22.94,18.33-31.42,30.57h.02c-.25.25-.51.52-.76.78l.02-.02c-.27.51-.55,1.01-.82,1.52l.07-.05ZM194.55,284.24s-.04.06-.04.06c2.73-5.33,5.47-10.66,8.2-16-.35-.25-.7-.5-1.05-.75-1.1.47-2.19.95-3.29,1.42-9.03,2.38-18.06,4.76-27.09,7.13-8.35.84-16.7,1.68-25.05,2.53,6.05,4.34,12.41,8.17,19.03,11.46,2.67,1.33,3.39,2.87,2.97,5.5-.91,5.65-1.61,11.34-2.69,16.95-1.35,7-3,13.94-4.52,20.9.12.1.25.2.37.3.55-.86,1.1-1.71,1.64-2.57.31-.62.63-1.23.94-1.85l.11.02c.4-.18.95-.25,1.19-.56,10.71-13.54,20.57-27.64,28.48-43.03.26-.51.52-1.02.78-1.52ZM100.06,211.52l-.03.03c6.4-10.09,12.17-20.42,11.95-32.92,2.33,3.19,4.67,6.38,7,9.56-.9-4.24-2.42-8.12-4.05-11.95-.25-.59-1-1.07-1.62-1.38-2.9-1.39-5.84-2.7-8.77-4.03-1.06-1.08-1.77-1.45-3.25-.07-4.75,4.41-5.41,10.31-6.65,16.1-.48,2.26.28,3.27,2.35,3.66.65.31,1.3.62,1.95.93-.21.31-.43.63-.64.94-1.4.2-2.81.39-4.08.57-1.71,4.67,2.65,3.95,4.12,5.24-1.39.93-2.84,1.9-4.3,2.88,1.35,1.31,2.71,2.62,4.15,4.01-1.3.33-2.68.67-4.44,1.12.45,4.32.88,8.45,1.31,12.58.32.07.64.14.97.21,1.11-2.22,2.23-4.44,3.34-6.66.23-.27.47-.54.7-.81ZM94.92,233.41c4.2-5.42,8.01-11.21,12.7-16.16,5.31-5.6,7.93-12.22,9.6-19.42.25-1.07-.55-2.37-.87-3.57-2.42,3.76-3.71,7.3-5.56,10.53-5.4,9.41-11.01,18.7-16.54,28.03-.32.64-.63,1.28-.95,1.91.16.09.32.18.48.27.38-.53.75-1.06,1.13-1.59ZM212.89,227.63l-9.43,4.77c-7.5,3.53-14.86,7.42-22.54,10.49-10.34,4.12-20.94,7.61-31.42,11.37-4.59.99-9.18,1.97-14.37,3.09,2.29-3.32,4.25-6.16,6.56-9.52h-20.6c2.54,4.56,4.83,8.75,7.24,12.87.53.91,1.4,1.99,2.33,2.25,9.35,2.68,18.8,4.59,28.62,3.39,15.31-.19,29.47-4.53,42.77-11.94,2.46-1.74,6.41-3.02,7.1-5.29,2.07-6.81,2.87-14.01,4.17-21.06.07-.16.13-.32.2-.48-.21.02-.41.04-.62.05ZM159.2,150.75c-.14-.97-.13-2-.45-2.9-5.97-17.06-17.66-28.49-34.55-34.62-6.48-2.35-13.05-2.3-19.84.22,1.41,2.13,2.63,3.98,3.86,5.83.38,2.36,1.61,3.04,4.1,2.99,20.45-.41,41.46,16.46,45.52,36.34.13.62.53,1.19.81,1.78.33-.05.67-.1,1-.16-.15-3.16-.3-6.31-.46-9.47ZM111.88,136.46c-.73,4.77-1.59,9.52-2.1,14.32-.12,1.14.57,2.87,1.47,3.52,6.9,5.05,14.63,7.66,23.27,7.18,3.62-.08,6.62-1.38,8.24-4.75,1.72-3.57,0-6.61-2.17-9.24-6.83-8.23-15.76-12.23-26.4-12.42-.76-.01-1.54.9-2.31,1.39ZM237.04,24.66l.1-.08c-.19.15-.43.27-.57.46-22.99,32.02-44.01,65.24-61.5,100.62-3.89,7.86-7.32,15.95-10.98,23.99,2.86,1.23,4.21.22,5.37-1.79,2.98-5.18,6.06-10.3,9.16-15.41,10.05-16.62,20.13-33.22,30.2-49.82,4.06-5.99,8.13-11.98,12.19-17.96.24.27.47.53.71.8-5.14,9.25-10.31,18.49-15.43,27.75-6.99,12.64-13.95,25.29-20.92,37.93-.19.45-.39.9-.58,1.35.39-.25.79-.5,1.18-.75,11.7-12.95,23.4-25.9,35.11-38.85.29.26.58.52.87.78-11.17,14.38-22.33,28.76-33.5,43.13.28.37.56.74.85,1.11,2.61-1.51,5.51-2.66,7.77-4.57,11.92-10.07,23.67-20.33,35.48-30.54,13.53-11.7,20.99-26.59,18.69-44.32-1.71-13.16-6.56-25.91-10.2-39.53-1.51,2.11-2.57,3.61-3.64,5.1-.2.15-.32.35-.35.6ZM295.72,183.69c-.5-.17-1-.34-1.5-.51-2.96-.79-5.9-1.65-8.88-2.36-22.24-5.23-44.65-9.44-67.46-11.16-2.56-.19-5.16-.03-7.73-.03,8.38,2.15,16.77,3.88,25.14,5.69,8.4,1.82,16.78,3.71,25.18,5.56,1.2.57,2.4,1.14,3.6,1.72-.07.16-.13.32-.2.48-12.57-2.08-25.13-4.16-37.7-6.24-.05.33-.1.66-.15.99.97.58,1.94,1.15,2.91,1.73-.08.22-.16.45-.23.67-6.8-1.35-13.6-2.69-20.84-4.13.41.98.44,1.31.6,1.39,14.29,7.37,28.57,14.77,42.89,22.06,7.21,3.67,14.76,3.97,22.59,2.21,10.79-2.43,17.05-11.51,26.35-16.99-1.44-.4-2.26-.63-3.09-.87-.49-.08-.98-.16-1.47-.24ZM161.48,180.88c-3.69,1.27-7.76,1.92-11.01,3.91-18.88,11.59-32.26,28.67-45.11,46.21-2.35,3.09-4.69,6.18-7.04,9.28.19.29.37.58.56.87,8.38-2.43,16.76-4.86,25.39-7.37-.67-3.84-1.26-7.26-1.91-10.99,2.32,2.2,4.27,4.06,6.23,5.91,2.3,4.32,4.84,1.31,7.62.36-.4-1.24-.73-2.29-1.06-3.33-.39-2.18-.78-4.37-1.35-7.57,2.12,1.99,3.57,3.36,5.03,4.72,3.49,4.47,4.26,4.48,9.93-.03-.63-1.53-1.28-3.1-1.93-4.67-.48-1.42-.96-2.84-1.73-5.11,2.11,1.35,3.59,2.29,5.07,3.24,4.35,4.24,4.39,4.3,9.21,1.17,3.23-2.1,6.45-4.25,9.47-6.63,10.81-8.54,20.11-18.31,23.55-32.18.95-3.83.94-7.89,1.42-12.28-3.79,1.32-6.42,2.73-9.18,3.1-9.7,1.3-19.45,2.25-29.19,3.33h-20.2c-.06.26-.11.52-.17.79,9.2,2.01,18.41,4.02,27.76,6.07-.47.42-.91.82-1.36,1.21ZM41.43,165.62c-4.05,8.99-6.21,18.44-7.39,28.52,1.19,0,2.04.11,2.86-.02,21.68-3.23,41.49-11.05,59.05-24.29,1.25-.95,2.49-2.18,3.19-3.56,5.56-10.9,9.44-22.28,8.31-34.74-.84-9.3-4.66-16.93-13.44-21.33-7.21-3.29-15.75-.61-23.25,7.4,2.37,1.81,4.93,3.41,7,5.5,1.03,1.04,1.79,3.13,1.48,4.45-.28,1.17-2.24,2.72-3.43,2.69-1.37-.03-3.05-1.34-3.99-2.56-1.62-2.1-2.76-4.56-4.8-8.09-5.67,8.72-11.15,16.3-15.69,24.4-3.86,6.89-6.64,14.38-9.89,21.61ZM357.4,75.58c-.95.3-1.89.6-2.84.9l-.14-.13s-.15.11-.15.11c-7.37,2.28-14.78,4.45-22.11,6.86-46.69,15.36-92.45,33.03-136.26,55.45-8.04,4.12-15.89,8.62-23.82,12.94.1.52.19,1.03.29,1.55,1.99-.12,4.12.18,5.94-.43,5.31-1.77,10.42-4.15,15.76-5.84,17.1-5.42,34.27-10.63,51.41-15.92.61-.08,1.23-.1,1.82-.25,18.28-4.49,36.56-9,54.84-13.48,1.22-.3,2.49-.36,3.74-.53-36.14,12.22-72.49,23.51-107.48,38.71,26.75-4.62,53.34-9.73,80.41-11.73-24.51,6.31-49.02,12.63-73.53,18.94.07.35.13.71.2,1.06,5.78-.6,11.54-1.4,17.34-1.77,20.94-1.31,41.91-2.14,62.82-3.79,26.35-2.08,46.73-14.75,58.68-38.25,7.32-14.4,11.75-30.27,17.5-45.53-.24-.03-.62-.18-.94-.08-1.17.35-2.31.79-3.46,1.19ZM141.21,182.24c-3.13-1-6.25-1.99-9.83-3.13-3.29,6.49-6.5,12.81-9.7,19.13l.89.76c6.15-5.53,12.3-11.06,18.65-16.76ZM209.86,195.07c-2.02-3.91-3.65-7.06-5.26-10.17-12.72,5.61-10.01,4.3-6.37,12.71.04.1.18.15.75.59,3.17-.91,6.69-1.92,10.89-3.13ZM164.33,154.16c0,2.94-.62,4.93.11,5.95,3.51,4.94,11,6.07,17.41,2.58-5.74-2.8-11.15-5.43-17.52-8.53ZM137.94,236.05c11.48,1.64,16.46-.85,19.47-9.52-6.35,3.1-12.67,6.19-19.47,9.52Z"/>
        <path class="cls-3" d="M369.08,68.83c.24-.05.48-.09.72-.14-.14.15-.28.3-.42.45-.1-.1-.21-.2-.31-.31Z"/>
        <path class="cls-10" d="M354.26,76.46s.15-.11.15-.11c0,0,.14.13.14.13.95-.3,1.89-.6,2.84-.9,1.15-.4,2.29-.84,3.46-1.19.31-.09.7.06.94.08-5.75,15.27-10.18,31.13-17.5,45.53-11.95,23.5-32.33,36.17-58.68,38.25-20.91,1.65-41.88,2.47-62.82,3.79-5.79.36-11.56,1.17-17.34,1.77-.07-.35-.13-.71-.2-1.06,24.51-6.31,49.02-12.63,73.53-18.94-27.07,2.01-53.66,7.11-80.41,11.73,34.99-15.19,71.34-26.49,107.48-38.71-1.25.17-2.52.23-3.74.53-18.28,4.48-36.56,8.99-54.84,13.48-.59.15-1.21.17-1.82.25,1.95-1.41,3.74-3.15,5.88-4.18,32.89-15.8,65.82-31.49,98.72-47.28,1.55-.74,2.81-2.09,4.21-3.16Z"/>
        <path class="cls-10" d="M185.37,131.14c6.97-12.65,13.93-25.3,20.92-37.93,5.12-9.26,10.28-18.5,15.43-27.75.11-.51.21-1.01.32-1.52-.34.24-.69.48-1.03.72-4.06,5.99-8.13,11.98-12.19,17.96.3-1.43.35-2.98.96-4.26,1.55-3.26,3.36-6.39,5.04-9.59,6.06-11.59,12.15-23.18,18.13-34.81,1.56-3.04,2.8-6.25,4.19-9.38,0,0-.1.08-.1.08.12-.2.24-.4.35-.6,1.07-1.5,2.14-2.99,3.64-5.1,3.64,13.62,8.49,26.37,10.2,39.53,2.3,17.72-5.16,32.62-18.69,44.32-11.8,10.21-23.56,20.46-35.48,30.54-2.26,1.91-5.17,3.07-7.77,4.57-.28-.37-.56-.74-.85-1.11,11.17-14.38,22.33-28.76,33.5-43.13-.29-.26-.58-.52-.87-.78-11.7,12.95-23.4,25.9-35.11,38.85-.2-.2-.4-.4-.6-.6Z"/>
        <path class="cls-24" d="M41.43,165.62c3.26-7.23,6.03-14.72,9.89-21.61,4.54-8.1,10.02-15.68,15.69-24.4,2.04,3.52,3.19,5.98,4.8,8.09.94,1.22,2.62,2.53,3.99,2.56,1.19.03,3.15-1.52,3.43-2.69.32-1.33-.45-3.42-1.48-4.45-2.07-2.09-4.63-3.69-7-5.5,7.5-8.01,16.04-10.69,23.25-7.4.33.93.52,1.93,1,2.78,4.57,8.15,6.54,16.7,5.06,26.12-1.65,10.48-5.47,19.87-12.74,27.64-10.09,10.78-22.89,16.88-36.89,20.75-3.27.9-6.58,1.62-10.45,2.56,0-2-.07-3.22.01-4.42.45-6.67.95-13.34,1.42-20.02ZM65.51,154.52l-.06-.08v11.75l.92.9c2.49-1.58,6.33-2.63,7.18-4.84,1.78-4.62,2.7-9.85,2.64-14.82-.07-5.26-3.32-6.38-7.54-3.01-7.37,5.89-11.6,14.07-16.11,22.25,3.54,1.05,5.65.36,7.18-2.71,1.64-3.3,3.84-6.32,5.79-9.46Z"/>
        <path class="cls-6" d="M138.82,222.87c-1.45-1.37-2.91-2.73-5.03-4.72.57,3.2.96,5.38,1.35,7.57-2.19.99-4.37,1.98-6.56,2.97-1.95-1.85-3.91-3.71-6.23-5.91.65,3.73,1.24,7.15,1.91,10.99-8.63,2.51-17.01,4.94-25.39,7.37-.19-.29-.37-.58-.56-.87,2.35-3.09,4.69-6.18,7.04-9.28.97-.44,2.14-.68,2.88-1.37,3.1-2.88,5.97-6,9.1-8.85,9.89-8.99,20.23-17.45,32.24-23.47,7.38-3.69,15.11-6.69,23.28-10.26-7.97.84-15.42,1.63-22.87,2.42-.17-.29-.33-.58-.5-.87,3.99-2.58,7.99-5.15,11.98-7.73.44-.4.89-.79,1.36-1.21-9.36-2.05-18.56-4.06-27.76-6.07.06-.26.11-.52.17-.79,6.73,0,13.47,0,20.2,0,.81.39,1.61,1.1,2.44,1.13,8.7.33,17.41.55,26.12.82,1.05.03,2.1.13,4.63.29-5.03,6.92-8.84,13.58-14.01,18.93-7.65,7.93-16.27,14.93-24.47,22.33-1.48-.94-2.96-1.89-5.07-3.24.77,2.27,1.25,3.69,1.73,5.11-2.67,1.56-5.33,3.13-8,4.69Z"/>
        <path class="cls-9" d="M297.19,183.93c.82.23,1.65.46,3.09.87-9.3,5.48-15.56,14.56-26.35,16.99-7.84,1.76-15.38,1.47-22.59-2.21-14.33-7.3-28.6-14.69-42.89-22.06-.16-.08-.19-.41-.6-1.39,7.24,1.44,14.04,2.78,20.84,4.13.08-.22.16-.45.23-.67-.97-.58-1.94-1.15-2.91-1.73.05-.33.1-.66.15-.99,12.57,2.08,25.13,4.16,37.7,6.24.07-.16.13-.32.2-.48-1.2-.57-2.4-1.14-3.6-1.72.17-.18.35-.52.49-.5,8.85.97,17.7,2.04,26.56,2.93,2.21.22,4.47-.08,6.7-.14.5.17,1,.34,1.5.51.49.08.98.16,1.47.24Z"/>
        <path class="cls-15" d="M149.5,254.25c10.49-3.76,21.08-7.24,31.42-11.37,7.69-3.07,15.04-6.96,22.54-10.49-.47,7.33-.95,14.67-1.42,22-13.3,7.41-27.45,11.74-42.77,11.94-3.26-4.03-6.52-8.06-9.78-12.09Z"/>
        <path class="cls-7" d="M41.43,165.62c-.48,6.67-.97,13.34-1.42,20.02-.08,1.21-.01,2.43-.01,4.42,3.86-.94,7.18-1.66,10.45-2.56,14-3.87,26.8-9.97,36.89-20.75,7.27-7.77,11.09-17.16,12.74-27.64,1.48-9.41-.5-17.96-5.06-26.12-.47-.85-.67-1.85-1-2.78,8.77,4.4,12.6,12.03,13.44,21.33,1.13,12.46-2.75,23.84-8.31,34.74-.7,1.38-1.93,2.61-3.19,3.56-17.56,13.24-37.37,21.06-59.05,24.29-.82.12-1.67.02-2.86.02,1.19-10.08,3.35-19.54,7.39-28.52Z"/>
        <path class="cls-17" d="M190.3,207.9l-6.59-.78c-.13-.42-.25-.84-.38-1.26,1.96-.79,3.92-1.58,5.87-2.36,1.29.42,2.57,1.15,3.87,1.19,4.39.15,8.8.06,14.15.06-8.09,15.86-20.48,25.59-34.43,33.73-.64-.27-1.28-.53-2.26-.94.11,1.04.19,1.73.27,2.42-1.88.78-3.76,1.56-5.65,2.34-.72-.51-1.45-1.03-2.17-1.54-.1-.19-.19-.37-.29-.56-.07.1-.13.2-.2.3.18.07.36.15.54.22v4.09c-3.36,3.93-5.39-.23-8.33-1.44.37,1.74.6,2.88.91,4.36-2.97.78-5.78,1.51-8.59,2.24-.2-.21-.4-.42-.59-.63,1.38-1.88,2.77-3.76,4.15-5.64.38-.26.76-.52,1.15-.78,0,0-.07.05-.07.05.27-.51.55-1.01.82-1.52,0,0-.02.02-.02.02.25-.26.51-.53.76-.79,0,0-.02.01-.02.01,1.2-.75,2.45-1.44,3.59-2.28,8.41-6.15,16.62-12.58,25.26-18.39,3.94-2.65,8.68-4.1,13.06-6.1-.02-.13-.05-.26-.07-.39-4.51.48-9.03.97-13.54,1.45-.12-.18-.23-.37-.35-.55,2.45-1.76,4.9-3.52,7.35-5.27,0,0-.05.03-.05.03,1.02-.26,2.05-.52,3.07-.79-.04-.15-.09-.3-.13-.45l-1.08-.07Z"/>
        <path class="cls-22" d="M171.29,276.11c9.03-2.38,18.06-4.76,27.09-7.13-.33,1.44-.63,2.88-1,4.31-.94,3.68-1.91,7.34-2.86,11.02,0,0,.04-.06.04-.06-.26.51-.52,1.02-.78,1.52-7.91,15.39-17.78,29.49-28.48,43.03-.24.31-.79.38-1.19.56.49-1.49.82-3.06,1.49-4.46,5.56-11.67,10.81-23.43,12.91-36.35.86-5.3.54-6.51-3.86-9.56-1.2-.83-2.24-1.91-3.35-2.87Z"/>
        <path class="cls-19" d="M150.15,216.31c8.21-7.4,16.82-14.4,24.47-22.33,5.17-5.35,8.98-12.02,14.01-18.93-2.53-.16-3.58-.26-4.63-.29-8.71-.26-17.41-.49-26.12-.82-.83-.03-1.62-.74-2.44-1.13,9.73-1.08,19.48-2.03,29.19-3.33,2.76-.37,5.38-1.78,9.18-3.1-.48,4.39-.47,8.45-1.42,12.28-3.44,13.88-12.74,23.64-23.55,32.18-3.02,2.39-6.24,4.53-9.47,6.63-4.83,3.13-4.87,3.07-9.21-1.17Z"/>
        <path class="cls-1" d="M171.29,276.11c1.11.96,2.15,2.04,3.35,2.87,4.41,3.06,4.72,4.26,3.86,9.56-2.1,12.92-7.35,24.68-12.91,36.35-.67,1.4-1,2.97-1.49,4.46,0,0-.11-.02-.11-.02-.31.62-.62,1.23-.94,1.85-.55.86-1.1,1.71-1.64,2.57-.12-.1-.25-.2-.37-.3,1.52-6.97,3.17-13.91,4.52-20.9,1.08-5.61,1.78-11.3,2.69-16.95.42-2.63-.3-4.17-2.97-5.5-6.62-3.3-12.98-7.13-19.03-11.46,8.35-.84,16.7-1.68,25.05-2.53Z"/>
        <path class="cls-15" d="M134.53,161.48c-8.65.48-16.37-2.13-23.27-7.18-.9-.66-1.59-2.39-1.47-3.52.51-4.79,1.37-9.55,2.1-14.32,9.03.37,16.34,4.26,22.49,10.73,5.03,5.3,5.16,9.39.15,14.29Z"/>
        <path class="cls-20" d="M161.48,180.88c-3.99,2.58-7.99,5.15-11.98,7.73.17.29.33.58.5.87,7.45-.79,14.91-1.58,22.87-2.42-8.17,3.57-15.9,6.57-23.28,10.26-12.01,6.01-22.35,14.48-32.24,23.47-3.13,2.84-6,5.97-9.1,8.85-.74.69-1.91.92-2.88,1.37,12.85-17.54,26.22-34.62,45.11-46.21,3.25-1.99,7.32-2.64,11.01-3.91Z"/>
        <path class="cls-12" d="M149.5,254.25c3.26,4.03,6.52,8.06,9.78,12.09-9.81,1.2-19.27-.72-28.62-3.39-.93-.27-1.8-1.34-2.33-2.25-2.41-4.12-4.69-8.32-7.24-12.87h20.6c-2.31,3.36-4.27,6.2-6.56,9.52,5.19-1.11,9.78-2.1,14.37-3.09Z"/>
        <path class="cls-5" d="M99.36,212.33c-1.11,2.22-2.23,4.44-3.34,6.66-.32-.07-.64-.14-.97-.21-.43-4.13-.86-8.26-1.31-12.58,1.76-.44,3.14-.79,4.44-1.12-1.44-1.39-2.79-2.7-4.15-4.01,1.45-.97,2.91-1.95,4.3-2.88-1.47-1.29-5.83-.57-4.12-5.24,1.28-.18,2.68-.37,4.08-.57.21-.31.43-.63.64-.94-.65-.31-1.3-.62-1.95-.93,2.52-6.56,5.03-13.12,7.55-19.68,2.93,1.34,5.87,2.64,8.77,4.03.63.3,1.37.79,1.62,1.38,1.64,3.83,3.15,7.71,4.05,11.95-2.33-3.19-4.67-6.38-7-9.56-.68,2.1-1.35,4.2-2.26,7.04-1.21-3.95-2.17-7.08-3.13-10.22.48,9.17-1.2,17.9-3.77,26.51-.95,3.19-1.85,6.39-2.78,9.59,0,0,.03-.03.03-.03-.23.27-.47.54-.7.81Z"/>
        <path class="cls-7" d="M172.79,238.48c13.95-8.15,26.35-17.88,34.43-33.73-5.36,0-9.76.09-14.15-.06-1.3-.04-2.58-.78-3.87-1.19,7.18-1.02,14.36-2.05,21.71-3.1.95,8.04-2.85,14.98-8.21,21.26-7,8.21-16.01,13.66-25.6,18.31-2.19,1.06-3.16-.19-4.31-1.49Z"/>
        <path class="cls-25" d="M294.21,183.18c-2.24.06-4.5.37-6.7.14-8.86-.9-17.71-1.96-26.56-2.93-.14-.02-.33.33-.49.5-8.39-1.86-16.78-3.75-25.18-5.56-8.37-1.81-16.76-3.55-25.14-5.69,2.58,0,5.17-.17,7.73.03,22.82,1.72,45.22,5.93,67.46,11.16,2.98.7,5.92,1.57,8.88,2.36Z"/>
        <path class="cls-7" d="M108.23,119.27c-1.22-1.85-2.45-3.7-3.86-5.83,6.79-2.52,13.36-2.57,19.84-.22,16.89,6.13,28.58,17.56,34.55,34.62.32.91.3,1.93.45,2.9-3.16-4.87-5.85-10.12-9.56-14.53-9.82-11.7-21.91-19.3-37.93-18.42-1.19.06-2.33.96-3.49,1.47Z"/>
        <path class="cls-14" d="M108.23,119.27c1.16-.51,2.3-1.4,3.49-1.47,16.02-.88,28.11,6.72,37.93,18.42,3.7,4.41,6.4,9.66,9.56,14.53.15,3.16.3,6.31.46,9.47-.33.05-.67.1-1,.16-.28-.59-.68-1.16-.81-1.78-4.06-19.88-25.06-36.75-45.52-36.34-2.49.05-3.72-.63-4.1-2.99Z"/>
        <path class="cls-11" d="M188.49,209.18c-2.45,1.76-4.9,3.52-7.35,5.27.12.18.23.37.35.55,4.51-.48,9.03-.97,13.54-1.45.02.13.05.26.07.39-4.38,2-9.12,3.45-13.06,6.1-8.63,5.81-16.85,12.24-25.26,18.39-1.14.83-2.39,1.52-3.59,2.28,8.48-12.24,18.02-23.4,31.42-30.57,1.14-.61,2.58-.65,3.88-.95Z"/>
        <path class="cls-26" d="M202.04,254.4c.47-7.33.95-14.67,1.42-22,3.14-1.59,6.29-3.18,9.43-4.77.13.15.27.29.42.42-1.3,7.05-2.09,14.25-4.17,21.06-.69,2.27-4.64,3.56-7.1,5.29Z"/>
        <path class="cls-12" d="M134.53,161.48c5.01-4.9,4.88-8.99-.15-14.29-6.15-6.47-13.46-10.36-22.49-10.73.77-.48,1.55-1.4,2.31-1.39,10.64.19,19.57,4.19,26.4,12.42,2.18,2.63,3.9,5.68,2.17,9.24-1.63,3.37-4.63,4.67-8.24,4.75Z"/>
        <path class="cls-16" d="M94.25,232.81c5.53-9.33,11.15-18.62,16.54-28.03,1.85-3.23,3.14-6.77,5.56-10.53.31,1.2,1.11,2.5.87,3.57-1.67,7.2-4.29,13.83-9.6,19.42-4.69,4.95-8.5,10.74-12.7,16.16-.22-.2-.44-.39-.66-.59Z"/>
        <path class="cls-2" d="M141.21,182.24c-6.35,5.71-12.5,11.24-18.65,16.76l-.89-.76c3.21-6.32,6.41-12.64,9.7-19.13,3.59,1.14,6.7,2.13,9.83,3.13Z"/>
        <path class="cls-8" d="M209.86,195.07c-4.2,1.21-7.71,2.22-10.89,3.13-.57-.45-.71-.5-.75-.59-3.64-8.41-6.34-7.1,6.37-12.71,1.61,3.12,3.24,6.26,5.26,10.17Z"/>
        <path class="cls-21" d="M100.04,211.55c.93-3.2,1.83-6.4,2.78-9.59,2.57-8.62,4.26-17.34,3.77-26.51.96,3.14,1.92,6.27,3.13,10.22.91-2.83,1.59-4.94,2.26-7.04.22,12.5-5.55,22.82-11.95,32.92Z"/>
        <path class="cls-13" d="M164.33,154.16c6.37,3.1,11.77,5.73,17.52,8.53-6.41,3.49-13.9,2.35-17.41-2.58-.73-1.02-.11-3.01-.11-5.95Z"/>
        <path class="cls-19" d="M104.54,170.84c-2.52,6.56-5.03,13.12-7.55,19.68-2.08-.39-2.84-1.4-2.35-3.66,1.24-5.79,1.9-11.69,6.65-16.1,1.48-1.37,2.19-1,3.25.07Z"/>
        <path class="cls-16" d="M137.94,236.05c6.81-3.33,13.13-6.42,19.47-9.52-3.01,8.67-8,11.16-19.47,9.52Z"/>
        <path class="cls-2" d="M138.82,222.87c2.67-1.56,5.33-3.13,8-4.69.65,1.57,1.3,3.14,1.93,4.67-5.67,4.5-6.44,4.5-9.93.03Z"/>
        <path class="cls-23" d="M194.51,284.3c.96-3.67,1.92-7.34,2.86-11.02.36-1.43.67-2.87,1-4.31,1.1-.47,2.2-.95,3.29-1.42.35.25.7.5,1.05.75-2.73,5.33-5.47,10.66-8.2,16Z"/>
        <path class="cls-2" d="M128.59,228.69c2.19-.99,4.37-1.98,6.56-2.97.33,1.04.67,2.09,1.06,3.33-2.77.95-5.31,3.96-7.62-.36Z"/>
        <path class="cls-2" d="M165.16,242.3c1.88-.78,3.76-1.56,5.65-2.34-.2.98-.12,2.58-.67,2.83-1.6.75-3.62,2.37-4.98-.49Z"/>
        <path class="cls-11" d="M190.3,207.9l1.08.07c.04.15.09.3.13.45-1.02.26-2.05.52-3.07.79.62-.43,1.24-.87,1.86-1.3Z"/>
        <path class="cls-16" d="M94.92,233.41c-.38.53-.75,1.06-1.13,1.59-.16-.09-.32-.18-.48-.27.32-.64.63-1.28.95-1.91.22.2.44.39.66.59Z"/>
        <path class="cls-10" d="M185.97,131.74c-.39.25-.79.5-1.18.75l.58-1.35c.2.2.4.4.6.6Z"/>
        <path class="cls-11" d="M152.47,241.46c-.27.51-.55,1.01-.82,1.52.27-.51.55-1.01.82-1.52Z"/>
        <path class="cls-22" d="M163.05,331.18c.31-.62.62-1.23.94-1.85-.31.62-.62,1.23-.94,1.85Z"/>
        <path class="cls-25" d="M297.19,183.93c-.49-.08-.98-.16-1.47-.24.49.08.98.16,1.47.24Z"/>
        <path class="cls-23" d="M193.77,285.76c.26-.51.52-1.02.78-1.52-.26.51-.52,1.02-.78,1.52Z"/>
        <path class="cls-21" d="M99.36,212.33c.23-.27.47-.54.7-.81-.23.27-.47.54-.7.81Z"/>
        <path class="cls-11" d="M153.21,240.69c-.25.26-.51.53-.76.79.25-.26.51-.53.76-.79Z"/>
        <path class="cls-11" d="M151.73,242.92c-.38.26-.76.52-1.15.78.38-.26.76-.52,1.15-.78Z"/>
        <path class="cls-4" d="M89.42,179.92c.13-.15.26-.3.39-.45-.04.24-.08.48-.12.73-.09-.09-.18-.19-.27-.28Z"/>
        <path class="cls-26" d="M212.89,227.63c.21-.02.41-.04.62-.05-.07.16-.13.32-.2.48-.15-.13-.29-.27-.42-.42Z"/>
        <path class="cls-16" d="M92.38,236.11c.18-.22.36-.44.55-.66.08.08.23.21.22.23-.16.24-.34.46-.51.69,0,0-.26-.25-.26-.25Z"/>
        <path class="cls-3" d="M221.01,64.66l1.03-.72c-.11.51-.21,1.01-.32,1.52-.24-.27-.47-.53-.71-.8Z"/>
        <path class="cls-18" d="M65.51,154.52c-1.96,3.14-4.15,6.16-5.79,9.46-1.53,3.07-3.64,3.76-7.18,2.71,4.52-8.18,8.74-16.36,16.11-22.25,4.22-3.37,7.48-2.25,7.54,3.01.06,4.96-.86,10.2-2.64,14.82-.85,2.21-4.69,3.26-7.18,4.84l-.92-.9c0-3.92,0-7.83,0-11.75.16,0,.32,0,.48,0-.03-.14-.07-.28-.1-.42-.11.17-.21.33-.32.5Z"/>
        <path class="cls-3" d="M163.02,240.72c-.18-.07-.36-.15-.54-.22.07-.1.13-.2.2-.3.1.19.19.37.29.56,0,0,.04-.04.04-.04Z"/>
        <path class="cls-24" d="M65.51,154.52c.11-.17.21-.33.32-.5.03.14.07.28.1.42-.16,0-.32,0-.48,0,0,0,.06.08.06.08Z"/>
      </g>
    </g>
  </g>
</svg>